<!-- Generated by IcoMoon.io -->
<svg version="1.1" xmlns="http://www.w3.org/2000/svg" width="32" height="32" viewBox="0 0 32 32">
<title>share</title>
<path fill="#fff" d="M26.667 11.429c-1.595 0-3.010-0.765-3.987-1.952l-12.259 4.894c0.144 0.517 0.246 1.054 0.246 1.622 0 0.341-0.042 0.67-0.094 0.995l11.672 6.101c0.958-1.518 2.581-2.517 4.422-2.517 2.946 0 5.333 2.557 5.333 5.714 0 3.155-2.387 5.714-5.333 5.714-2.898 0-5.245-2.48-5.32-5.565l-12.246-6.402c-0.965 1.030-2.296 1.667-3.768 1.667-2.946 0-5.333-2.555-5.333-5.707s2.387-5.709 5.333-5.709c1.211 0 2.315 0.45 3.211 1.178l12.848-5.131c-0.022-0.205-0.059-0.405-0.059-0.618 0-3.154 2.389-5.714 5.334-5.714s5.333 2.56 5.333 5.714c0 3.157-2.387 5.715-5.333 5.715z"></path>
</svg>
