<!-- Generated by IcoMoon.io -->
<svg version="1.1" xmlns="http://www.w3.org/2000/svg" width="32" height="32" viewBox="0 0 32 32">
<title>comment</title>
<path fill="#fff" d="M29.336 0h-26.672c-1.472 0-2.666 1.365-2.666 3.051v19.85c0 1.685 1.73 2.699 3.202 2.699h17.6l6.4 6.4v-6.4h1.6c1.472 0 3.202-1.014 3.202-2.699v-19.85c0-1.686-1.194-3.051-2.666-3.051zM6.93 14.72c-1.274 0-2.306-1.094-2.306-2.442 0-1.349 1.032-2.442 2.306-2.442 1.275 0 2.307 1.093 2.307 2.442 0 1.347-1.032 2.442-2.307 2.442zM15.938 14.72c-1.274 0-2.306-1.094-2.306-2.442 0-1.349 1.032-2.442 2.306-2.442s2.307 1.093 2.307 2.442c0 1.347-1.034 2.442-2.307 2.442zM25.163 14.72c-1.274 0-2.306-1.094-2.306-2.442 0-1.349 1.032-2.442 2.306-2.442s2.307 1.093 2.307 2.442c0 1.347-1.034 2.442-2.307 2.442z"></path>
</svg>
